<svg xmlns="http://www.w3.org/2000/svg" width="16" height="16" viewBox="0 0 16 16">
  <path id="パス_1914" data-name="パス 1914" d="M14.125,2.22h-.941a.628.628,0,0,0,.009-.1V.877a.625.625,0,0,0-.625-.625h-.722a.625.625,0,0,0-.625.625V2.118a.628.628,0,0,0,.009.1H4.77a.627.627,0,0,0,.009-.1V.877A.625.625,0,0,0,4.154.252H3.432a.625.625,0,0,0-.625.625V2.118a.627.627,0,0,0,.009.1H1.875A1.876,1.876,0,0,0,0,4.1v10.28a1.876,1.876,0,0,0,1.875,1.876h12.25A1.876,1.876,0,0,0,16,14.376V4.1A1.876,1.876,0,0,0,14.125,2.22Zm.663,11.738a.938.938,0,0,1-.937.938H2.15a.938.938,0,0,1-.937-.938V6.936H14.788Z" transform="translate(0 -0.252)" fill="#a4afb7"/>
</svg>
