<svg xmlns="http://www.w3.org/2000/svg" width="90" height="21.279" viewBox="0 0 90 21.279">
  <g id="logo_kubota" transform="translate(0 0)">
    <path id="パス_663" data-name="パス 663" d="M120.7,26.87h3.439V41.959H120.7Zm74.822,6.061h-3.439V26.87h-3.439V48.02h3.439V36.671h3.439ZM138.49,26.87H134.1l-8.893,10.575L134.1,48.02h4.387L129.6,37.445Zm24.19,6.061a6.8,6.8,0,0,0-3.557,1.032V26.87h-3.439V41.959h3.676a5,5,0,0,1-.237-1.419,3.57,3.57,0,1,1,7.115,0,3.656,3.656,0,0,1-3.557,3.869,2.772,2.772,0,0,1-1.186-.258V48.02a3.723,3.723,0,0,0,1.186.129c3.794,0,7-3.353,7-7.609C169.557,36.413,166.474,32.931,162.68,32.931Zm-14.111,0V40.54a3.656,3.656,0,0,1-3.557,3.869,2.772,2.772,0,0,1-1.186-.258V48.02a3.723,3.723,0,0,0,1.186.129c3.794,0,7-3.353,7-7.609V32.931h-3.439Zm-6.64,7.609h0V32.931H138.49V40.54a5.738,5.738,0,0,0,.119,1.419h3.557A5,5,0,0,1,141.929,40.54Zm36.877-7.609c-3.794,0-7,3.353-7,7.609a5.738,5.738,0,0,0,.119,1.419h3.557a5,5,0,0,1-.237-1.419,3.57,3.57,0,1,1,7.115,0,3.656,3.656,0,0,1-3.557,3.869,2.772,2.772,0,0,1-1.186-.258V48.02a3.723,3.723,0,0,0,1.186.129c3.794,0,7-3.353,7-7.609C185.8,36.413,182.719,32.931,178.806,32.931Zm25.02.258c-3.794,0-6.877,3.353-6.877,7.48a4.309,4.309,0,0,0,.119,1.29h3.439a4.936,4.936,0,0,1-.237-1.29,3.57,3.57,0,1,1,7.115,0,3.656,3.656,0,0,1-3.557,3.869,3.265,3.265,0,0,1-1.186-.258v3.74a3.723,3.723,0,0,0,1.186.129,4.7,4.7,0,0,0,3.676-1.806V48.02h3.2V40.54C210.7,36.542,207.5,33.189,203.826,33.189Z" transform="translate(-120.703 -26.87)" fill="#009da6"/>
  </g>
</svg>
